	<svg width="20" height="15" viewBox="0 0 20 15" fill="currentColor" xmlns="http://www.w3.org/2000/svg">
						<path
							fill-rule="evenodd"
							clip-rule="evenodd"
							d="M0 13.4999C0 14.3284 0.733978 15 1.63998 15L18.0028 15C18.9086 15 19.6428 14.3284 19.6428 13.4999C19.6428 12.6716 18.9086 12 18.0028 12L1.63998 12C0.733978 12 0 12.6716 0 13.4999Z"
						/>
						<path
							fill-rule="evenodd"
							clip-rule="evenodd"
							d="M0 7.4999C0 8.32841 0.733978 9 1.63998 9L18.0028 9C18.9086 9 19.6428 8.32841 19.6428 7.4999C19.6428 6.67159 18.9086 6 18.0028 6L1.63998 6C0.733978 6 0 6.67159 0 7.4999Z"
						/>
						<path
							fill-rule="evenodd"
							clip-rule="evenodd"
							d="M0 1.4999C0 2.32841 0.733978 3 1.63998 3L18.0028 3C18.9086 3 19.6428 2.32841 19.6428 1.4999C19.6428 0.671586 18.9086 0 18.0028 0L1.63998 0C0.733978 0 0 0.671586 0 1.4999Z"
						/>
					</svg>